<svg xmlns="http://www.w3.org/2000/svg" viewBox="0 0 209 40" role="img" width="209" height="40">
<title>Migratio by Cognis — horizontal compressed lockup</title>
<desc>Migratio wordmark with inline by Cognis endorsement and Aurora cube, sized for app headers and email signatures.</desc>
<defs>
<linearGradient id="auroraTop" x1="0" y1="0" x2="0.5" y2="1">
<stop offset="0%" stop-color="#5A93D8"/>
<stop offset="100%" stop-color="#3D7BC4"/>
</linearGradient>
<linearGradient id="auroraLeft" x1="0" y1="0" x2="0" y2="1">
<stop offset="0%" stop-color="#2670CA"/>
<stop offset="100%" stop-color="#164695"/>
</linearGradient>
<linearGradient id="auroraRight" x1="0" y1="0" x2="0" y2="1">
<stop offset="0%" stop-color="#6BC05F"/>
<stop offset="100%" stop-color="#4A9A3F"/>
</linearGradient>
</defs>
<g transform="translate(4 4) scale(1.0)">
<path d="M 16 0 L 32 8 L 16 16 L 0 8 Z" fill="url(#auroraTop)"/>
<path d="M 0 8 L 16 16 L 16 32 L 0 24 Z" fill="url(#auroraLeft)"/>
<path d="M 32 8 L 16 16 L 16 32 L 32 24 Z" fill="url(#auroraRight)"/>
<path d="M 16 0 L 32 8" stroke="#C5DAF0" stroke-width="0.35" opacity="0.65" fill="none"/>
<path d="M 16 0 L 0 8" stroke="#C5DAF0" stroke-width="0.35" opacity="0.4" fill="none"/>
</g>
<g transform="translate(48 26)" fill="#2D3748"><g transform="scale(0.022000 -0.022000)"><g transform="translate(0.00 0)"><path d="M620 534H615L560 421L407 142L254 421L199 534H194V0H86V698H220L407 343H413L600 698H728V0H620Z"/></g><g transform="translate(814.00 0)"><path d="M133 613Q99 613 83.5 629.0Q68 645 68 670V687Q68 712 83.5 728.0Q99 744 133 744Q167 744 182.0 728.0Q197 712 197 687V670Q197 645 182.0 629.0Q167 613 133 613ZM78 520H187V0H78Z"/></g><g transform="translate(1079.00 0)"><path d="M534 -49Q534 -130 472.0 -171.0Q410 -212 270 -212Q206 -212 161.5 -203.5Q117 -195 88.5 -179.0Q60 -163 47.0 -140.0Q34 -117 34 -87Q34 -44 57.5 -20.0Q81 4 123 13V24Q64 43 64 104Q64 144 91.0 165.5Q118 187 156 196V200Q110 222 85.5 261.5Q61 301 61 354Q61 434 114.5 483.0Q168 532 268 532Q323 532 362 516V530Q362 565 378.5 584.5Q395 604 430 604H510V516H404V495Q439 472 458.0 435.5Q477 399 477 354Q477 275 423.0 226.5Q369 178 269 178Q231 178 201 186Q181 179 166.0 166.5Q151 154 151 134Q151 113 170.0 104.0Q189 95 224 95H352Q448 95 491.0 56.5Q534 18 534 -49ZM432 -61Q432 -34 411.5 -18.0Q391 -2 337 -2H161Q125 -23 125 -62Q125 -94 150.5 -113.5Q176 -133 237 -133H305Q432 -133 432 -61ZM269 257Q317 257 343.5 278.5Q370 300 370 345V365Q370 410 343.5 431.5Q317 453 269 453Q221 453 194.5 431.5Q168 410 168 365V345Q168 300 194.5 278.5Q221 257 269 257Z"/></g><g transform="translate(1616.00 0)"><path d="M78 0V520H187V420H192Q203 460 238.0 490.0Q273 520 335 520H364V415H321Q256 415 221.5 394.0Q187 373 187 332V0Z"/></g><g transform="translate(1999.00 0)"><path d="M459 0Q416 0 393.0 24.5Q370 49 365 87H360Q345 38 305.0 13.0Q265 -12 208 -12Q127 -12 83.5 30.0Q40 72 40 143Q40 221 96.5 260.0Q153 299 262 299H356V343Q356 391 330.0 417.0Q304 443 249 443Q203 443 174.0 423.0Q145 403 125 372L60 431Q86 475 133.0 503.5Q180 532 256 532Q357 532 411.0 485.0Q465 438 465 350V89H520V0ZM239 71Q290 71 323.0 93.5Q356 116 356 154V229H264Q151 229 151 159V141Q151 106 174.5 88.5Q198 71 239 71Z"/></g><g transform="translate(2548.00 0)"><path d="M222 0Q165 0 136.0 29.5Q107 59 107 113V431H26V520H70Q97 520 107.5 532.0Q118 544 118 571V662H216V520H325V431H216V89H317V0Z"/></g><g transform="translate(2913.00 0)"><path d="M133 613Q99 613 83.5 629.0Q68 645 68 670V687Q68 712 83.5 728.0Q99 744 133 744Q167 744 182.0 728.0Q197 712 197 687V670Q197 645 182.0 629.0Q167 613 133 613ZM78 520H187V0H78Z"/></g><g transform="translate(3178.00 0)"><path d="M282 -12Q228 -12 183.5 7.0Q139 26 108.0 61.5Q77 97 60.0 147.5Q43 198 43 260Q43 322 60.0 372.5Q77 423 108.0 458.5Q139 494 183.5 513.0Q228 532 282 532Q336 532 380.5 513.0Q425 494 456.0 458.5Q487 423 504.0 372.5Q521 322 521 260Q521 198 504.0 147.5Q487 97 456.0 61.5Q425 26 380.5 7.0Q336 -12 282 -12ZM282 78Q338 78 372.0 112.5Q406 147 406 216V304Q406 373 372.0 407.5Q338 442 282 442Q226 442 192.0 407.5Q158 373 158 304V216Q158 147 192.0 112.5Q226 78 282 78Z"/></g></g></g>
<g transform="translate(138.324 26)" fill="#9CA3AF"><g transform="scale(0.010000 -0.010000)"><g transform="translate(236.00 0)"><path d="M93 740H150V430H153Q172 473 211.0 498.5Q250 524 309 524Q408 524 464.0 454.0Q520 384 520 256Q520 128 464.0 58.0Q408 -12 309 -12Q250 -12 212.0 13.5Q174 39 153 82H150V0H93ZM296 39Q373 39 416.0 88.0Q459 137 459 220V292Q459 375 416.0 424.0Q373 473 296 473Q266 473 239.5 464.5Q213 456 193.0 441.0Q173 426 161.5 405.0Q150 384 150 359V156Q150 129 161.5 107.5Q173 86 193.0 70.5Q213 55 239.5 47.0Q266 39 296 39Z"/></g><g transform="translate(810.00 0)"><path d="M399 512H457L220 -144Q208 -176 191.0 -188.0Q174 -200 135 -200H77V-150H163L212 -15L22 512H82L239 61H243Z"/></g></g></g>
<g transform="translate(153.574 26)" fill="#5BB04F"><g transform="scale(0.010000 -0.010000)"><g transform="translate(0.00 0)"><path d="M348 -12Q211 -12 133.0 80.5Q55 173 55 349Q55 437 75.0 504.0Q95 571 133.0 617.0Q171 663 225.5 686.5Q280 710 348 710Q439 710 500.5 670.0Q562 630 597 552L502 500Q484 550 446.5 579.5Q409 609 348 609Q267 609 221.0 554.0Q175 499 175 402V296Q175 199 221.0 144.0Q267 89 348 89Q411 89 450.5 121.5Q490 154 509 205L600 150Q565 74 502.0 31.0Q439 -12 348 -12Z"/></g><g transform="translate(734.00 0)"><path d="M356 -12Q288 -12 232.5 11.5Q177 35 137.5 80.5Q98 126 76.5 193.5Q55 261 55 349Q55 437 76.5 504.5Q98 572 137.5 617.5Q177 663 232.5 686.5Q288 710 356 710Q424 710 479.5 686.5Q535 663 574.5 617.5Q614 572 635.5 504.5Q657 437 657 349Q657 261 635.5 193.5Q614 126 574.5 80.5Q535 35 479.5 11.5Q424 -12 356 -12ZM356 89Q396 89 429.5 103.0Q463 117 486.5 143.5Q510 170 523.0 208.0Q536 246 536 294V404Q536 452 523.0 490.0Q510 528 486.5 554.5Q463 581 429.5 595.0Q396 609 356 609Q315 609 282.0 595.0Q249 581 225.5 554.5Q202 528 189.0 490.0Q176 452 176 404V294Q176 246 189.0 208.0Q202 170 225.5 143.5Q249 117 282.0 103.0Q315 89 356 89Z"/></g><g transform="translate(1546.00 0)"><path d="M535 106H531Q520 55 471.5 21.5Q423 -12 343 -12Q281 -12 228.0 11.5Q175 35 136.5 80.5Q98 126 76.5 193.5Q55 261 55 349Q55 436 77.0 503.5Q99 571 139.0 617.0Q179 663 235.0 686.5Q291 710 360 710Q454 710 519.0 668.5Q584 627 620 553L528 499Q508 548 466.0 578.5Q424 609 360 609Q277 609 226.5 556.0Q176 503 176 406V292Q176 195 226.5 142.0Q277 89 360 89Q393 89 423.0 97.5Q453 106 475.5 122.5Q498 139 511.5 163.5Q525 188 525 221V275H381V372H634V0H535Z"/></g><g transform="translate(2351.00 0)"><path d="M274 386 197 534H194V0H86V698H212L440 312L517 164H520V698H628V0H502Z"/></g><g transform="translate(3165.00 0)"><path d="M56 0V92H151V606H56V698H360V606H264V92H360V0Z"/></g><g transform="translate(3681.00 0)"><path d="M295 -12Q207 -12 145.5 20.0Q84 52 40 106L118 179Q155 134 199.5 111.0Q244 88 301 88Q368 88 402.0 118.0Q436 148 436 199Q436 240 412.0 264.0Q388 288 327 300L265 311Q163 330 112.0 378.0Q61 426 61 510Q61 556 78.5 593.5Q96 631 127.5 656.5Q159 682 204.0 696.0Q249 710 305 710Q384 710 442.0 682.5Q500 655 541 603L462 533Q435 568 396.0 589.0Q357 610 299 610Q239 610 206.0 586.0Q173 562 173 516Q173 472 200.0 450.5Q227 429 284 418L346 405Q451 385 499.5 337.0Q548 289 548 205Q548 156 531.0 116.0Q514 76 481.5 47.5Q449 19 402.0 3.5Q355 -12 295 -12Z"/></g></g></g>
</svg>