<svg xmlns="http://www.w3.org/2000/svg" width="16" height="16" fill="none"><path fill="#0ACF83" d="M5.515 14.455a1.97 1.97 0 0 0 1.97-1.97v-1.97h-1.97a1.97 1.97 0 0 0 0 3.94Z"/><path fill="#A259FF" d="M3.545 8.54a1.97 1.97 0 0 1 1.97-1.97h1.97v3.94h-1.97a1.97 1.97 0 0 1-1.97-1.97Z"/><path fill="#F24E1E" d="M3.545 4.607a1.97 1.97 0 0 1 1.97-1.97h1.97v3.94h-1.97a1.97 1.97 0 0 1-1.97-1.97Z"/><path fill="#FF7262" d="M7.484 2.637h1.97a1.97 1.97 0 0 1 0 3.94h-1.97v-3.94Z"/><path fill="#1ABCFE" d="M11.424 8.54a1.97 1.97 0 1 1-3.941-.001 1.97 1.97 0 0 1 3.94.001Z"/></svg>