<svg xmlns="http://www.w3.org/2000/svg" width="20" height="20" fill="none"><g clip-path="url(#a)"><path fill="#000" d="m4.074 15.237 1.385 1.385 8.311-8.31 1.386 1.384 1.385-1.385-1.385-1.385L16.54 5.54l-1.385-1.385L13.77 5.54l-1.385-1.385L11 5.54l1.385 1.385-8.31 8.311ZM8.23 5.541l1.385-1.385L11 5.54 9.615 6.926 8.23 5.54Zm0 0L6.844 6.926 5.46 5.54l1.385-1.385L8.23 5.54Zm6.926 6.926 1.385-1.386-1.385-1.385-1.386 1.386 1.386 1.385Zm0 0-1.386 1.385 1.386 1.385 1.385-1.385-1.385-1.385Z"/></g><defs><clipPath id="a"><path fill="#fff" d="M20 0v20H0V0z"/></clipPath></defs></svg>