<svg xmlns="http://www.w3.org/2000/svg" width="59" height="20" fill="none"><path fill="#EBF213" fill-rule="evenodd" d="M2.847 5.303c5.059 1.727 9.234 1.372 12.212.548.39-.108.76-.224 1.11-.345a2.712 2.712 0 0 0-2.712-2.67h-7.91a2.712 2.712 0 0 0-2.7 2.467Zm13.322 3.13a11.29 11.29 0 0 0-1.646.59c-2.46 1.107-4.743 3.253-6.383 7.146h5.317a2.712 2.712 0 0 0 2.712-2.712V8.434ZM5.232 16.152c1.097-2.966 2.55-5.232 4.257-6.909-2.025-.043-4.254-.36-6.653-1.093v5.308a2.712 2.712 0 0 0 2.396 2.694Z" clip-rule="evenodd"/><path fill="#EBF213" d="M52.894 14.636c-1.962 0-3.022-.98-3.126-2.354l1.438-.066c.118.772.615 1.256 1.688 1.256.863 0 1.413-.262 1.413-.877 0-.51-.262-.732-1.662-.967-2.066-.367-2.707-.968-2.707-2.106 0-1.27.98-2.159 2.786-2.159 1.779 0 2.72 1.02 2.917 2.29l-1.426.078c-.13-.72-.641-1.204-1.504-1.204-.903 0-1.334.393-1.334.942 0 .615.418.864 1.556 1.047 2.158.353 2.812.928 2.812 2.066 0 1.308-1.19 2.054-2.851 2.054Zm-5.008-.158v-6.96h1.386v6.96h-1.386Zm-.027-7.966V5.125h1.452v1.387H47.86ZM34.66 14.48V7.52h1.269l.026 1.204c.34-.85 1.06-1.36 1.936-1.36 1.033 0 1.753.536 2.054 1.438.314-.929 1.02-1.439 2.014-1.439 1.465 0 2.302.942 2.302 2.643v4.473h-1.386v-4.133c0-1.204-.432-1.819-1.321-1.819-.877 0-1.44.694-1.44 1.871v4.081h-1.32v-4.081c0-1.177-.367-1.87-1.295-1.87-.89 0-1.452.706-1.452 1.87v4.081H34.66Zm-3.584.156c-2.015 0-3.297-1.439-3.297-3.636 0-2.198 1.282-3.637 3.257-3.637 1.897 0 3.192 1.348 3.192 3.689v.353h-4.997c.066 1.36.759 2.04 1.858 2.04.824 0 1.373-.405 1.596-1.059l1.438.092c-.366 1.295-1.504 2.158-3.047 2.158Zm1.674-4.277c-.079-1.23-.759-1.818-1.714-1.818-.98 0-1.648.64-1.805 1.818h3.519Zm-8.168 4.12V6.486H21.73V5.191h7.116v1.295h-2.851v7.993h-1.413ZM46.82 5.105h-1.43v9.428h1.43V5.105Z"/></svg>